<svg xmlns="http://www.w3.org/2000/svg" width="16" height="13.051" viewBox="0 0 16 13.051">
  <g id="Grupo_36" data-name="Grupo 36" transform="translate(-0.001)">
    <path id="Caminho_151" data-name="Caminho 151" d="M13.341,15.056c-2.833,0-4.51.942-4.51,3.661,0,1.125,1.036,2.294,2.074,3.266.975.913,1.975,1.763,2.436,1.763s1.462-.851,2.436-1.763c1.038-.971,2.074-2.141,2.074-3.266,0-2.719-1.678-3.661-4.511-3.661Zm-1.9,2.361a.442.442,0,1,1,.442.442.442.442,0,0,1-.442-.442Zm1.9,3.716a1.192,1.192,0,0,1-1.3-1.049,1.192,1.192,0,0,1,1.3-1.049,1.192,1.192,0,0,1,1.3,1.049,1.192,1.192,0,0,1-1.3,1.049ZM14.8,17.859a.442.442,0,1,1,.312-.129.442.442,0,0,1-.312.129Zm-6.41-.13c-.908.025-1.239-1.217-.862-1.935.381-.68.814-.822,1.111-.822a1,1,0,0,1,1,.536,3.418,3.418,0,0,0-1.247,2.221" transform="translate(-5.267 -10.694)" fill="#79756c" fill-rule="evenodd"/>
    <path id="Caminho_152" data-name="Caminho 152" d="M8,0c.257,0,.42,1.536.566,1.86.075.166.207.077.305-.176.255-.65.751-1.493.871-1.461s.03.935-.042,1.611c-.032.3.078.345.26.1.059-.079.4-.538.545-.5.034.008.073.037.08.213.005.132.163.063.382-.144.325-.308.643-.613.715-.549a2.8,2.8,0,0,1-.255,1.012c-.1.287-.067.426.085.324.067-.045.3-.2.37-.111.018.023.046.055-.024.249-.049.135.1.1.359-.057.347-.218.695-.433.748-.384.071.066-.157.485-.4.942-.143.267.022.288.192.181a2.819,2.819,0,0,1,.574-.26c.1-.023.484-.273.167.563-.057.146.094.188.224.157a3.021,3.021,0,0,1,.893-.152.2.2,0,0,1,.18.068c.05.08,0,.2-.495.717-.061.063-.051.119.131.158,1.075.228,1.006.425.99.48s-.226.127-.5.267c-.191.1-.133.263.131.407.7.385.663.536.655.568s-.021.08-.174.121c-.119.031-.047.155.155.312.182.143.333.266.308.332s-.212.091-.442.13c-.255.041-.326.178-.175.334.229.236.2.3.17.327a.278.278,0,0,1-.214.055c-.12,0-.076.044-.023.081.11.077.651.508.632.6-.008.042-.167.012-.39-.034s-.319-.091-.283.043-.143.218-.283.236a1.826,1.826,0,0,1-.251.013c-.264,0-.311.254-.457.492a4.171,4.171,0,0,1-2.756,1.782,4.619,4.619,0,0,0,1.461-2.883c0-.161-.006-.316-.016-.466,1.278-.026,1.786-1.673,1.25-2.7l0-.006,0-.006a1.839,1.839,0,0,0-1.551-1.089,1.491,1.491,0,0,0-1.422.766A6.563,6.563,0,0,0,8,3.84a6.563,6.563,0,0,0-3.24.683,1.491,1.491,0,0,0-1.422-.766A1.839,1.839,0,0,0,1.787,4.846l0,.006,0,.006c-.536,1.028-.028,2.673,1.25,2.7q-.017.233-.016.466a4.614,4.614,0,0,0,1.461,2.883A4.171,4.171,0,0,1,1.719,9.124c-.147-.237-.192-.492-.457-.492a1.822,1.822,0,0,1-.251-.013C.873,8.6.694,8.517.729,8.383S.663,8.3.446,8.34s-.382.076-.39.034c-.02-.091.522-.522.632-.6.053-.037.1-.086-.023-.081A.279.279,0,0,1,.45,7.64c-.026-.029-.059-.091.17-.327C.771,7.156.7,7.019.445,6.978.216,6.939.03,6.915,0,6.849s.126-.189.308-.332c.2-.157.274-.281.155-.312C.313,6.164.3,6.111.293,6.084S.245,5.9.948,5.516c.265-.145.322-.31.131-.407C.805,4.968.6,4.9.579,4.841s-.085-.25.99-.48c.182-.039.192-.1.131-.158-.5-.514-.545-.638-.495-.717a.2.2,0,0,1,.18-.068,3.022,3.022,0,0,1,.892.152c.13.031.279-.011.224-.157-.317-.836.071-.586.167-.563a2.82,2.82,0,0,1,.574.26c.17.108.336.086.193-.181-.245-.455-.472-.876-.4-.942.053-.049.4.165.748.384.255.161.408.191.359.057-.07-.194-.041-.227-.024-.249.068-.088.3.066.37.111.153.1.184-.036.085-.324C4.416,1.51,4.25,1.013,4.318.954s.39.241.715.549c.219.208.377.276.382.144.007-.176.046-.2.08-.213.144-.035.486.424.545.5.182.242.292.2.26-.1A4.55,4.55,0,0,1,6.259.223c.119-.032.617.811.871,1.461.1.253.231.343.305.176C7.581,1.536,7.743,0,8,0" transform="translate(0)" fill="#ff760c" fill-rule="evenodd"/>
    <path id="Caminho_153" data-name="Caminho 153" d="M31.353,17.729c.908.025,1.239-1.217.862-1.935-.381-.68-.814-.822-1.111-.822a1,1,0,0,0-1,.536,3.417,3.417,0,0,1,1.247,2.221M26.4,19.574c-.416,0-.753.228-.753.51s.337.51.753.51.754-.228.754-.51S26.814,19.574,26.4,19.574Zm0,.319c-.325,0-.561.208-.555.138.017-.2.333-.318.555-.318s.538.117.555.318C26.959,20.1,26.723,19.893,26.4,19.893Z" transform="translate(-18.472 -10.694)" fill="#79756c" fill-rule="evenodd"/>
  </g>
</svg>
